<svg xmlns="http://www.w3.org/2000/svg" width="140" height="21" fill="none"><path fill="#fff" d="M23.078 9.467l.538-2.758a.245.245 0 0 0-.134-.282.243.243 0 0 0-.11-.022h-3.636l.57-2.928a.244.244 0 0 0-.248-.304h-3.48a.643.643 0 0 0-.607.51l-1.228 6.294h-4.28l1.265-6.51a.244.244 0 0 0-.267-.303H8.013a.644.644 0 0 0-.607.51l-.542 2.722H3.453a.644.644 0 0 0-.607.51l-.538 2.759a.248.248 0 0 0 .244.308h3.627l-.694 3.585H2.04a.653.653 0 0 0-.611.51l-.543 2.768a.243.243 0 0 0 .249.304h3.65l-.566 2.928a.24.24 0 0 0 .244.304H7.93a.648.648 0 0 0 .612-.506l1.223-6.308h4.284l-1.264 6.51a.238.238 0 0 0 .133.283.24.24 0 0 0 .11.02h3.49a.653.653 0 0 0 .611-.505l.53-2.726H21.1a.644.644 0 0 0 .607-.51l.538-2.759a.249.249 0 0 0-.244-.308H18.33l.7-3.581h3.465a.648.648 0 0 0 .584-.515zM45.793 20.19a.566.566 0 0 1-.492.18h-3.08c-.427 0-.598-.193-.506-.584l1.43-7.355c.172-.858.153-1.428-.055-1.71a1.287 1.287 0 0 0-1.094-.442c-.44.02-.875.11-1.287.267-.47.155-.931.337-1.38.547l-.252 1.287-1.412 7.406a1.197 1.197 0 0 1-.184.405.593.593 0 0 1-.515.18h-3.094c-.409 0-.57-.194-.46-.585l1.43-7.452c.148-.786.13-1.324-.06-1.613a1.14 1.14 0 0 0-1.047-.442 4.197 4.197 0 0 0-1.274.253c-.484.154-.957.341-1.416.561l-1.655 8.693c-.04.146-.107.283-.198.405a.653.653 0 0 1-.533.18h-3.08c-.414 0-.57-.194-.46-.585l2.437-12.605a.873.873 0 0 1 .225-.46.69.69 0 0 1 .506-.165h3.08c.262 0 .414.064.46.193a.73.73 0 0 1 0 .423l-.138.652.027.028a9.102 9.102 0 0 1 2.175-1.136 6.532 6.532 0 0 1 2.225-.404 4.482 4.482 0 0 1 2.128.46 2.183 2.183 0 0 1 1.122 1.443 13.047 13.047 0 0 1 2.506-1.38c.82-.351 1.7-.537 2.593-.546a4.014 4.014 0 0 1 2.21.487c.464.301.81.753.98 1.278a4.3 4.3 0 0 1 .156 1.766 22.155 22.155 0 0 1-.294 1.958l-1.54 8.008c-.04.144-.101.28-.184.405zM47.519 15.921c.002-.605.054-1.21.156-1.807.101-.606.23-1.2.377-1.779.196-.732.46-1.444.786-2.128a6.592 6.592 0 0 1 1.38-1.936 6.8 6.8 0 0 1 2.243-1.379 9.126 9.126 0 0 1 3.333-.533 7.76 7.76 0 0 1 1.89.225c.569.132 1.11.364 1.6.685.455.298.835.7 1.107 1.172.28.51.422 1.084.41 1.665a3.894 3.894 0 0 1-.884 2.661 5.861 5.861 0 0 1-2.202 1.554c-.91.374-1.865.63-2.84.759-1.021.138-2.244.243-3.104.28a3.815 3.815 0 0 0-.151 1.002c0 .842 1.438.92 1.719.961 1.062.138 3.218-.128 4.8-.409a.992.992 0 0 1 .5 0c.134.046.198.202.198.46v1.342c.024.28-.04.56-.184.8-.22.22-.495.378-.795.46a7.779 7.779 0 0 1-1.094.294c-.41.083-.841.152-1.287.198-.446.046-.92.083-1.347.11a20.03 20.03 0 0 1-1.26.041 8.686 8.686 0 0 1-2.184-.225 4.303 4.303 0 0 1-1.682-.823 3.89 3.89 0 0 1-1.09-1.47 5.36 5.36 0 0 1-.395-2.18zm9.272-5.277a1.14 1.14 0 0 0-.381-.883 1.508 1.508 0 0 0-1.067-.35 2.528 2.528 0 0 0-1.379.382c-.334.25-.618.563-.837.92-.24.392-.428.814-.56 1.255-.143.46-.138.404-.249.84 2.299.111 3.76-.634 4.046-.955a1.77 1.77 0 0 0 .427-1.21zM70.566 19.111a.73.73 0 0 1-.184.561.989.989 0 0 1-.487.336 9.118 9.118 0 0 1-1.136.28c-.405.074-.79.138-1.163.184-.372.046-.731.078-1.067.096-.335.019-.616.028-.836.028a4.595 4.595 0 0 1-2.06-.377 2.454 2.454 0 0 1-1.08-.993 2.905 2.905 0 0 1-.336-1.416c.002-.56.06-1.12.17-1.669l1.232-6.243H62.41c-.225 0-.372-.05-.436-.156a.653.653 0 0 1-.042-.46l.418-2.1a.874.874 0 0 1 .212-.46.676.676 0 0 1 .492-.152h1.26l.524-2.69c.142-.551.349-.712.832-.712h2.997c.46 0 .386.29.35.515L68.46 6.57h2.855c.262 0 .414.046.46.138.046.15.046.31 0 .46l-.423 2.128a1.02 1.02 0 0 1-.18.46.653.653 0 0 1-.519.156h-2.887l-.984 5.195a4.43 4.43 0 0 0-.096.69.745.745 0 0 0 .11.46c.118.141.28.24.46.28.3.073.61.106.92.096a20.736 20.736 0 0 0 1.958-.11c.155-.008.31.011.46.055.1.037.142.216.123.533l-.151 2zM84.431 19.754a.919.919 0 0 1-.17.423.619.619 0 0 1-.533.193h-3.163c-.244 0-.39-.05-.46-.152a.73.73 0 0 1 0-.432l.143-.703-.028-.028c-.698.47-1.446.86-2.23 1.163a5.784 5.784 0 0 1-2.027.377c-1.382 0-2.33-.358-2.846-1.075a4.896 4.896 0 0 1-.767-2.901c.001-.474.034-.947.096-1.416.065-.492.143-1.012.24-1.554.179-1.003.432-1.99.758-2.956a7.94 7.94 0 0 1 1.209-2.253 5.02 5.02 0 0 1 1.807-1.457 6.11 6.11 0 0 1 2.648-.52c.569.014 1.134.1 1.682.253a7.388 7.388 0 0 1 1.733.7l.115-.46a.515.515 0 0 1 .193-.364.855.855 0 0 1 .423-.087h3.108c.262 0 .414.06.46.17.04.15.04.31 0 .46l-2.39 12.62zM79.834 9.99c-.36-.007-.717.05-1.057.165a1.839 1.839 0 0 0-.736.533c-.276.43-.497.894-.657 1.38-.16.467-.286.944-.377 1.43-.13.618-.206 1.247-.226 1.88-.053.415.052.835.295 1.176.26.206.588.306.919.28a6.404 6.404 0 0 0 1.595-.284c.429-.136.84-.32 1.228-.547l1.094-5.545a5.117 5.117 0 0 0-2.087-.468h.009zM99.285 19.897a.53.53 0 0 1-.589.46H97.52c-.317 0-.46-.157-.363-.46l1.623-8.275c.102-.522.163-1.05.184-1.582.024-.34-.034-.68-.17-.993a.994.994 0 0 0-.589-.505 3.328 3.328 0 0 0-1.048-.138 4.937 4.937 0 0 0-1.232.193c-.487.133-.965.28-1.443.46-.478.179-.92.34-1.357.519-.436.18-.758.322-.983.432l-1.931 9.916a.529.529 0 0 1-.589.46h-1.149c-.317 0-.437-.156-.363-.46l3.64-18.84a.538.538 0 0 1 .543-.459h1.15c.335 0 .46.161.418.46l-1.38 7.112h.06c.258-.147.59-.327.994-.534a13.58 13.58 0 0 1 1.314-.574c.487-.18.983-.333 1.485-.46.49-.127.993-.193 1.499-.198a4.44 4.44 0 0 1 2.073.396 2.18 2.18 0 0 1 1.021 1.076 3.6 3.6 0 0 1 .239 1.64 14.65 14.65 0 0 1-.28 2.07l-1.6 8.284zM112.276 19.897a.496.496 0 0 1-.529.46h-1.15c-.335 0-.459-.156-.39-.46l.193-1.066c-.742.45-1.51.857-2.298 1.218a6.679 6.679 0 0 1-2.846.575c-1.287 0-2.207-.322-2.758-.966-.552-.643-.828-1.59-.828-2.84 0-.495.03-.99.092-1.48a19.96 19.96 0 0 1 .262-1.628 21.84 21.84 0 0 1 .814-3.08 7.203 7.203 0 0 1 1.26-2.266 5.057 5.057 0 0 1 1.907-1.402 7.09 7.09 0 0 1 2.759-.46c.61.014 1.217.104 1.806.267.698.178 1.375.43 2.018.754l.028-.028.083-.395a.421.421 0 0 1 .18-.308c.14-.045.288-.064.436-.056h1.043c.207 0 .336.033.396.102.06.069.064.197.027.404l-2.505 12.655zm0-10.614a9.604 9.604 0 0 0-3.862-.869 4.211 4.211 0 0 0-1.586.267 2.63 2.63 0 0 0-1.13.896c-.361.504-.64 1.06-.828 1.65-.271.83-.48 1.678-.626 2.538a28.085 28.085 0 0 0-.266 1.623c-.058.399-.09.801-.097 1.204 0 .878.161 1.448.488 1.71.432.292.95.43 1.47.391a4.798 4.798 0 0 0 1.178-.17c.467-.114.927-.254 1.379-.418.46-.17.92-.34 1.328-.52.41-.18.759-.33 1.02-.46l1.532-7.842zM125.893 8.358a.428.428 0 0 1-.28.28 1.416 1.416 0 0 1-.502.028l-1.765-.183a17.255 17.255 0 0 0-1.793-.097 7.493 7.493 0 0 0-1.246.097c-.351.053-.69.172-.998.349a1.807 1.807 0 0 0-.657.671c-.171.337-.253.712-.24 1.09-.01.278.07.552.226.781.155.21.35.387.575.52.256.146.53.259.813.335.307.083.613.152.92.207.299.055.676.147 1.135.267.466.126.913.313 1.329.556.434.258.807.606 1.094 1.02.318.491.479 1.067.46 1.651a4.809 4.809 0 0 1-.483 2.299 3.852 3.852 0 0 1-1.3 1.425 5.391 5.391 0 0 1-1.895.74c-.744.14-1.5.21-2.257.207-.356 0-.742-.014-1.159-.041a16.22 16.22 0 0 1-1.218-.125c-.39-.055-.763-.124-1.108-.197a3.72 3.72 0 0 1-.855-.28.46.46 0 0 1-.198-.59l.226-.588a.534.534 0 0 1 .28-.335c.136-.039.279-.048.418-.028l.92.11c.35.042.699.074 1.053.102l1.034.069c.34 0 .616.027.841.027.462.004.924-.033 1.38-.11.386-.065.759-.194 1.103-.382a1.89 1.89 0 0 0 .745-.74c.19-.382.282-.805.266-1.232a1.499 1.499 0 0 0-.703-1.416 5.057 5.057 0 0 0-1.678-.574 12.412 12.412 0 0 1-1.32-.267 5.296 5.296 0 0 1-1.379-.543 3.347 3.347 0 0 1-1.02-.988 2.653 2.653 0 0 1-.432-1.568 4.445 4.445 0 0 1 .46-2.087 3.678 3.678 0 0 1 1.222-1.379 5.347 5.347 0 0 1 1.77-.759 9.084 9.084 0 0 1 2.092-.239c.262 0 .584 0 .97.028s.777.06 1.181.115c.405.055.786.129 1.15.216.315.07.623.17.92.299a.29.29 0 0 1 .21.239.82.82 0 0 1-.04.326l-.267.694zM137.24 19.897a.533.533 0 0 1-.589.46h-1.177c-.317 0-.46-.156-.363-.46l1.623-8.275c.1-.522.16-1.05.184-1.581.022-.34-.036-.68-.17-.993a.994.994 0 0 0-.589-.506 3.328 3.328 0 0 0-1.048-.138 4.937 4.937 0 0 0-1.232.193c-.487.134-.97.28-1.444.46-.473.18-.92.34-1.379.52-.46.179-.754.321-.979.432l-1.926 9.888a.533.533 0 0 1-.589.46h-1.149c-.317 0-.46-.156-.363-.46l3.655-18.812a.538.538 0 0 1 .56-.46h1.145c.34 0 .46.162.423.46l-1.384 7.13h.056c.262-.146.593-.326.997-.532.428-.216.866-.408 1.315-.575.486-.18.982-.333 1.485-.46.49-.127.993-.193 1.499-.198a4.44 4.44 0 0 1 2.073.396c.454.23.815.61 1.02 1.076a3.6 3.6 0 0 1 .24 1.64c-.047.696-.14 1.387-.28 2.07l-1.615 8.265z"/></svg>